<?xml version="1.0" encoding="iso-8859-1"?>
<!-- Generator: Adobe Illustrator 18.0.0, SVG Export Plug-In . SVG Version: 6.00 Build 0)  -->
<!DOCTYPE svg PUBLIC "-//W3C//DTD SVG 1.1//EN" "http://www.w3.org/Graphics/SVG/1.1/DTD/svg11.dtd">
<svg version="1.1" id="Capa_1" xmlns="http://www.w3.org/2000/svg" xmlns:xlink="http://www.w3.org/1999/xlink" x="0px" y="0px"
	 viewBox="0 0 297 297" style="enable-background:new 0 0 297 297;" xml:space="preserve">
<g>
	<path d="M290.517,63.342c0-25.101-20.421-45.522-45.522-45.522c-4.338,0-9.821,0.36-15.17,1.704C221.023,7.711,206.381,0,191.537,0
		c-9.678,0-19.021,3.091-26.73,8.685C157.099,3.091,147.756,0,138.079,0c-15.531,0-29.74,7.92-38.029,20.503
		c-4.911-1.769-10.117-2.684-15.429-2.684c-25.101,0-45.522,20.422-45.522,45.522c0,20.618,13.783,38.068,32.616,43.648v7.165
		H48.982c-23.434,0-42.499,20.396-42.499,45.465v42.993c0,25.069,19.065,45.464,42.499,45.464h22.732v3.46
		c0,25.068,20.395,45.464,45.464,45.464h91.917c25.068,0,45.464-20.396,45.464-45.464V107.845
		C275.082,103.438,290.517,85.16,290.517,63.342z M48.982,228.31c-12.535,0-22.732-11.527-22.732-25.697v-42.993
		c0-14.17,10.197-25.697,22.732-25.697h22.732v94.388H48.982z M209.096,277.233h-91.917c-14.17,0-25.697-11.527-25.697-25.697
		V108.339c2.927-0.444,5.795-1.16,8.568-2.159c8.289,12.582,22.498,20.504,38.029,20.504c17.98,0,33.56-10.479,40.951-25.649
		c9.15,5.583,20.45,7.829,30.326,7.829c6.138,0,12.205-1.246,17.819-3.635c2.461,1.048,5.013,1.861,7.617,2.461v143.847
		C234.793,265.706,223.266,277.233,209.096,277.233z M244.994,89.097c-4.52,0-8.969-1.193-12.867-3.45
		c-3.064-1.773-6.84-1.773-9.903,0c-3.899,2.257-8.349,3.45-12.867,3.45c-10.555,0-22.882-3.713-26.634-12.008
		c-1.918-4.242-6.535-6.574-11.088-5.589c-4.551,0.98-7.801,5.005-7.801,9.661c0,14.201-11.554,25.755-25.755,25.755
		c-10.923,0-20.69-6.924-24.305-17.229c-1.013-2.886-3.303-5.141-6.205-6.106c-1.019-0.34-2.072-0.506-3.12-0.506
		c-1.938,0-3.858,0.569-5.507,1.676c-4.24,2.843-9.192,4.347-14.321,4.347c-14.202,0-25.755-11.554-25.755-25.755
		c0-14.202,11.553-25.756,25.755-25.756c5.13,0,10.081,1.503,14.32,4.348c2.54,1.703,5.724,2.136,8.628,1.17
		c2.901-0.966,5.192-3.221,6.205-6.106c3.614-10.306,13.382-17.23,24.305-17.23c7.381,0,14.421,3.183,19.317,8.732
		c1.876,2.127,4.575,3.346,7.411,3.346c2.836,0,5.535-1.219,7.412-3.346c4.896-5.55,11.937-8.732,19.317-8.732
		c10.165,0,20.936,6.868,25.053,15.976c1.152,2.545,3.325,4.484,5.984,5.338c2.66,0.852,5.557,0.543,7.974-0.856
		c2.854-1.652,8.255-2.64,14.446-2.64c14.202,0,25.756,11.554,25.756,25.756C270.75,77.543,259.196,89.097,244.994,89.097z"/>
	<path d="M203.906,130.463c-5.458,0-9.883,4.426-9.883,9.883v97.848c0,5.458,4.425,9.883,9.883,9.883
		c5.459,0,9.884-4.425,9.884-9.883v-97.848C213.79,134.889,209.365,130.463,203.906,130.463z"/>
	<path d="M163.137,130.463c-5.458,0-9.883,4.426-9.883,9.883v97.848c0,5.458,4.425,9.883,9.883,9.883
		c5.459,0,9.884-4.425,9.884-9.883v-97.848C173.02,134.889,168.596,130.463,163.137,130.463z"/>
	<path d="M122.367,130.463c-5.458,0-9.883,4.426-9.883,9.883v97.848c0,5.458,4.425,9.883,9.883,9.883
		c5.459,0,9.884-4.425,9.884-9.883v-97.848C132.251,134.889,127.826,130.463,122.367,130.463z"/>
</g>
<g>
</g>
<g>
</g>
<g>
</g>
<g>
</g>
<g>
</g>
<g>
</g>
<g>
</g>
<g>
</g>
<g>
</g>
<g>
</g>
<g>
</g>
<g>
</g>
<g>
</g>
<g>
</g>
<g>
</g>
</svg>
